<?xml version="1.0" encoding="utf-8"?>
<!-- Generator: Adobe Illustrator 26.0.3, SVG Export Plug-In . SVG Version: 6.00 Build 0)  -->
<svg version="1.0" id="Layer_1" xmlns="http://www.w3.org/2000/svg" xmlns:xlink="http://www.w3.org/1999/xlink" x="0px" y="0px"
	 viewBox="0 0 430 230" style="enable-background:new 0 0 430 230;" xml:space="preserve">
<g>
	<path d="M17,105.2l32.5-26.8c2.3-1.9,2.3-1.9,4.6,0l32.4,26.5v20l-32.7,26.7c-1,0.8-2,1.5-2.1,1.5c-0.2,0-3-2.1-5.9-4.4L17,124.9
		V105.2z M49.3,81.2l-30.2,25v5.2c0,0.6,0.1,1.1,0.2,1.1c0.3,0,0.9-0.4,1.7-1.1l29.7-24.6v-5.2c0-0.6-0.2-1.1-0.2-1.1
		C50.2,80.6,49.7,80.9,49.3,81.2z M54.4,127.3l-23.2-18.9c-1.7-1.5-1.7-1.5-3.1-0.3l-7.9,6.6c-0.8,0.7-1.1,1.2-1.1,2.2v3.5
		c0,0.7,0.1,1.3,0.2,1.3c0.3,0,0.9-0.3,1.9-1.2l5.2-4.6c3-2.6,3.1-2.7,5.2-0.9l19.1,15.9c1.3,1.1,1.3,1.1,3-0.4l0.7-0.6
		c0.6-0.5,1.2-1.1,1.2-1.3C55.5,128.4,55,127.8,54.4,127.3z M22.8,121.7l-1.8,1.5c-0.4,0.3-0.8,0.7-0.8,0.9s0.3,0.6,0.8,0.9
		l28.5,23.7c0.4,0.4,0.8,0.7,1,0.7c0.1,0,0.2-0.4,0.2-1v-5.3l-25.9-21.4C23.8,120.9,23.8,120.9,22.8,121.7z M28.4,117.2l-1.9,1.5
		c-0.4,0.3-0.8,0.7-0.8,0.9c0,0.1,0.4,0.5,0.8,0.8l23,19c0.4,0.4,0.8,0.7,1,0.7c0.1,0,0.2-0.5,0.2-1.1V135c0-1,0-1-0.8-1.6
		l-19.5-16.1C29.3,116.4,29.3,116.4,28.4,117.2z M32.3,107l23.8,19.5c1.3,1.1,1.3,1.1,3-0.3l0.7-0.6c0.7-0.6,1.2-1.2,1.2-1.3
		s-0.5-0.7-1.1-1.2l-16.1-13.1c-0.7-0.5-1.6-1.2-2.2-1.7l-1.6-1.2c-1.2-0.9-1.3-1.2-0.6-1.7c0.2-0.2,1-0.7,1.6-1.2l8.5-7
		c0.9-0.7,1.2-1.2,1.2-2.3v-3.5c0-0.7-0.2-1.4-0.2-1.4c-0.1,0-0.7,0.4-1.3,0.9l-16.8,13.8c-0.6,0.5-1.1,1-1.1,1.2
		S31.7,106.5,32.3,107z M71.3,122.9l-23.2-19c-1.7-1.4-1.7-1.4-3.1-0.3l-1.3,1.1c-0.6,0.5-1.1,1-1.1,1.1c0,0.2,0.5,0.7,1.1,1.2
		l14.8,12.3c0.6,0.4,1.6,1.2,2.1,1.7l2.7,2.1c1.3,1.1,1.3,1.2,0,2.2l-9.3,7.8c-0.9,0.7-1.1,1.2-1.1,2.3v3.4c0,0.7,0.2,1.4,0.2,1.4
		c0.2,0,0.8-0.4,1.4-0.9l16.7-13.8c0.6-0.5,1.1-1.1,1.1-1.3C72.4,124,71.9,123.4,71.3,122.9z M51.6,103.9l21.4,18
		c1.2,1.1,1.2,1.1,2.5,0l7.9-6.5c0.9-0.7,1.1-1.2,1.1-2.3v-3.5c0-0.7,0-1.4-0.1-1.4c-0.3,0-0.9,0.4-1.9,1.2l-6.7,5.8
		c-1.3,1.1-1.7,1.1-3,0L53.4,99.2c-1.3-1.1-1.6-1.2-2.9,0l-1.3,1c-0.6,0.5-1.1,1.1-1.1,1.3c0,0.2,0.2,0.4,0.4,0.5
		C49.1,102.2,50.5,103,51.6,103.9z M53,81.3v5.4l25.9,21.5c1,0.9,1.1,0.9,2.5-0.3l1.2-1c0.5-0.4,0.9-0.9,0.9-1.2s-0.4-0.7-0.8-1.2
		L54.1,80.9c-0.4-0.3-0.9-0.7-1-0.7C53.1,80.3,53,80.8,53,81.3z M53,90.6v5.5l20.3,16.7c1.1,0.9,1.1,0.9,2.5-0.3l1.2-1.1
		c0.5-0.3,0.8-0.9,0.8-1.2c0-0.2-0.3-0.7-0.7-1.1l-23-18.9c-0.4-0.4-0.9-0.7-1-0.7C53.1,89.6,53,90,53,90.6z M54.3,148.8l30.1-24.9
		v-5.3c0-0.5,0-1-0.1-1c-0.1,0-0.5,0.3-1,0.7l-8.2,7c-1.2,1.1-2,1.6-2.9,2.1c-0.5,0.3-1.2,0.8-1.7,1.2l-16.8,14
		c-0.8,0.7-0.8,0.7-0.8,1.7v4.2c0,0.6,0.1,1,0.2,1C53.4,149.4,53.9,149.2,54.3,148.8z M113.2,138.6v-26c0-1.7-0.3-2.1-2.1-2.1h-1.4
		c-2.5,0-2.8-0.1-2.8-0.8c0-0.3,0.2-1.1,0.5-1.8c0.2-0.7,1.4-1.2,2.5-1.2h1.2c1.4,0,2.2-0.7,2.5-2.1l1.2-5.6
		c0.7-3.7,2.7-6.7,6.2-9.3L122,89c0.9-0.7,2.7-1.5,3.9-1.8l1.4-0.3c4.4-1,8,0,9.3,2.5c0.9,1.8,0.9,2-0.1,3.6c-1,1.7-1.7,2.1-3.9,2.1
		c-2.2,0-4-1.6-4.9-4c-1-2.7-2.8-2.4-4.8,1c-0.4,0.7-1,2.1-1.2,3.3v0.2c-0.3,1.2-0.6,3-0.6,4.1l-0.2,5.1c-0.1,2.1,0,2.1,2,2.1h7.4
		c1.2,0,2.1,0.1,2.1,0.2c0,0.2-1.1,1.1-2.9,2.6c-0.7,0.6-2.2,1-3.4,1h-3.3c-2,0-2.1,0.1-2.1,2.1v25.6c0,2.5,0.2,2.7,2.7,3l2.5,0.2
		c1.2,0.1,2.1,0.5,2.1,0.9c0,0.4-0.9,0.7-2.1,0.7h-15.9c-1.2,0-2.1-0.2-2.1-0.3c0-1.1,0.4-1.4,2.2-1.7l0.9-0.1
		C112.7,140.7,113.2,140.1,113.2,138.6z M156.1,115.2l-0.7,21c-0.1,2.6,2.2,3.8,4.4,2.1c0.4-0.4,0.8-0.7,0.8-0.9
		c0-0.1,0.3-0.2,0.7-0.2c0.8,0,1.1,0.2,1.1,0.7c0,0.2-0.4,0.8-0.9,1.4l-1.4,1.7c-1.9,2.2-4.8,3.1-7.6,2.4l-0.4-0.1
		c-1.8-0.5-3.5-3-3.5-5.2c0-0.3-0.5-0.2-1.2,0.3l-1.8,1.6c-0.6,0.6-1.6,1.2-2.2,1.6l-1.9,1c-1.7,1-3.4,1.2-5.3,0.7l-2-0.5
		c-3-0.7-5.3-3.5-5.6-6.7l-0.1-0.5c0-0.8,0-2,0.2-2.7l0.2-1.2c0.2-1.4,1.2-2.7,2.9-4.2l0.8-0.7c0.6-0.5,1.6-1.1,2.4-1.3l12.5-4.3
		c0.7-0.2,1.3-1,1.3-1.8v-0.1c0-0.7-0.1-2-0.2-2.6l-0.7-3.8c-0.7-3.6-5.2-6.1-9-4.9l-1.8,0.6c-2.7,0.8-2.9,1.1-1.8,3l0.7,1.4
		c0.8,1.6,0.8,1.9,0.1,3.4s-1.6,2-3.4,2h-0.8c-1.9,0-3.5-1.1-3.8-2.5c-0.5-2.3,0.6-4.5,2.7-5.8l7-3.9c0.7-0.3,1.8-0.7,2.5-0.8
		l1.6-0.3c1.8-0.2,3.7-0.2,5.3,0.1l3.4,0.6c0.7,0.2,1.7,0.7,2.3,1.2l0.7,0.7c0.5,0.6,1.1,1.6,1.3,2.4l0.6,2.1
		C155.9,113.1,156.1,114.4,156.1,115.2z M148.3,135.1l0.5-11c0-1,0-1-0.4-1c-0.2,0-0.7,0.1-1.2,0.2l-4.4,1.3c-0.4,0.2-1,0.4-1.3,0.6
		l-2.9,1.7c-0.9,0.5-1.4,1.2-2,2.4l-0.5,1.2c-0.1,0.3-0.2,0.9-0.2,1.3v2.1c0,0.4,0.2,1.1,0.3,1.5l0.1,0.1c0.2,0.4,0.5,1,0.7,1.2
		l1.1,1.1c0.2,0.2,0.7,0.6,1,0.7l0.1,0.1c0.3,0.1,0.8,0.2,1.2,0.2h2c0.4,0,1-0.1,1.4-0.2l0.2-0.1c0.4-0.1,1-0.3,1.2-0.5l2.4-1.7
		C148.3,135.8,148.3,135.8,148.3,135.1z M163,142.2V95.1c0-2.8-0.6-3.6-2.9-4.4l-0.7-0.2c-1.1-0.3-2-0.9-2-1.3c0-0.3,1-0.9,2.1-1.2
		l6.8-1.9c1.2-0.3,2.5-0.7,2.9-0.7c0.3,0,0.7,1,0.7,2.1V110c0,2.4,0,2.4,1.9,0.7l2.8-2.5c3.1-2.7,7.1-3.6,11.1-2.5l1.8,0.5
		c1.1,0.3,2.6,1.2,3.4,2l3.5,3.6c0.7,0.7,1.6,2.3,2,3.4l1,3.4c0.3,1.1,0.6,3,0.6,4v1c0,1.1-0.2,2.9-0.5,3.9l-0.8,3.1
		c-0.3,1-1.1,2.6-1.6,3.5l-0.9,1.4c-0.7,0.9-1.9,2.3-2.9,3l-2.5,2c-3,2.5-8.9,3.8-12.8,3l-5.3-1.2c-1.1-0.2-2.1-0.6-2.1-0.7
		c0-0.4-0.7-0.2-2.5,1l-0.7,0.4c-1,0.7-2,1.2-2.1,1.2C163.1,144.3,163,143.4,163,142.2z M169.9,116.2v16.9c0,1.2,0.5,2.1,1.6,3.4
		l2.5,2.5c0.4,0.4,1.1,1,1.6,1.2l1.5,0.8c0.4,0.2,1.2,0.4,1.8,0.4h1.4c0.5,0,1.6-0.2,2.1-0.3c0.7-0.2,1.6-0.7,1.9-1.1l2.4-2.5
		c0.4-0.3,0.9-1.1,1.1-1.6l0.7-2.1c0.2-0.5,0.4-1.3,0.5-1.8l0.5-2.5c0.1-0.4,0.2-1.3,0.2-1.9v-4c0-2.1-0.4-3.7-1.2-5.2l-2.3-4.2
		c-0.2-0.6-0.8-1.2-1.2-1.6l-0.2-0.1c-0.9-0.7-1.1-0.8-2.5-1.2l-1.7-0.5c-1.7-0.5-3.6-0.3-5.6,0.5l-0.6,0.2
		c-0.6,0.2-1.4,0.7-1.8,1.2l-2,1.7C170,115.1,169.9,115.3,169.9,116.2z M245.8,138l-8.5-21.9c-2.1-5.6-4-8-6-8c-0.5,0-1,2.8-1,6.2
		v17.3c0,5.8,0.9,7.5,4.2,7.8c0.7,0.1,1.4,0.6,1.4,1c0,0.5-2.8,1.5-6.1,2.1l-0.7,0.2c-3.4,0.7-6.1-0.2-6.1-2.1c0-3.7,0-3.7-3.7-0.8
		c-5.7,4.4-11.2,5.3-15.4,2.2c-3.1-2.2-4.1-5.5-4.1-13.2v-13.7c0-6.7-0.1-6.8-3.5-7.1c-1.1-0.1-2.1-0.6-2.1-1.1
		c0-0.5,2.9-0.8,6.2-0.8h0.7c3.9,0,6.2,2.2,6.2,6.2l-0.2,14.5c-0.1,8.7,1.6,11.4,7.3,11.4c2.1,0,7.2-1.8,8.4-2.9
		c0.1-0.2,0.2-3,0.2-6.5v-12.7c0-6.4-0.7-7.9-4-8.1c-1-0.2-1.9-0.6-1.9-1.1c0-0.5,2.8-0.8,6.2-0.8h0.7c15,0,24.2,0.2,24.2,0.7
		c0,1.1-0.2,1.2-2.6,2c-2.6,0.7-2.6,0.7-0.3,6.9l4.6,11.8c1.2,3.2,2.3,5.8,2.4,5.8c0.1,0,1.2-2.6,2.5-5.8l2.1-5.5
		c1.3-3.1,2.4-5.9,2.4-6.1c0-1.7-4.1-7.7-5.8-8.5c-1.2-0.6,0.6-1.1,4-1.1h6c3.4,0,6.2,0.3,6.2,0.8c0,0.5-1,1.2-2.2,1.7
		c-2.4,0.8-2.4,0.8,0.1,7l4.8,12c1.3,3.2,2.4,5.8,2.5,5.8c0.1,0,1-2.6,2.1-5.9l2.9-8.7c2.9-8.5,2.4-10.5-2.9-11.1
		c-0.5-0.1-1-0.5-1-0.8c0-0.4,2.8-0.7,6.2-0.7h2.4c3.5,0,6.2,0.3,6.2,0.7c0,0.9,0,0.9-2.8,2.1c-1.4,0.6-3.5,3.7-4.5,6.9l-7.6,21.9
		c-1.1,3.2-2.7,5.8-3.5,5.8c-0.7,0-2.4-2.5-3.7-5.7l-5.7-13.5c-1.3-3.1-2.5-5.8-2.5-5.8c-0.1,0-1.1,2.6-2.5,5.8l-5.5,13.4
		c-1.3,3.2-2.9,5.8-3.5,5.8C248.5,143.8,247.1,141.2,245.8,138z M285,117.1l3.1-5.3c0.4-0.7,1.2-1.6,2-2.2l0.3-0.3
		c0.7-0.5,1.8-1.2,2.5-1.6l3-1.4c0.7-0.3,1.8-0.7,2.6-0.8l1.5-0.2c0.7-0.1,2-0.2,2.8-0.2h0.6c0.7,0,2,0.2,2.7,0.2l2.5,0.5
		c0.7,0.2,1.9,0.6,2.5,0.9l1,0.5c2.1,1,3.5,2.1,4.4,3.3l3,3.5c0.4,0.6,1,1.7,1.2,2.5l0.9,3.1c0.7,2.2,0.8,4.6,0.3,7l-0.4,2.5
		c-0.2,0.7-0.5,1.8-0.9,2.5l-2,3.9c-0.3,0.7-1.2,1.6-1.7,2.1l-2.3,2.1c-0.6,0.6-1.6,1.2-2.3,1.6l-2.5,1.1c-1.8,0.8-3.5,1.3-5.2,1.4
		h-1c-0.7,0.1-2,0-2.7-0.1l-2.9-0.4c-0.7-0.1-1.8-0.4-2.5-0.7l-4.2-2.1c-0.7-0.3-1.6-1.1-2.1-1.7l-2.7-3.5c-0.5-0.6-1.1-1.7-1.4-2.5
		l-0.7-1.6c-0.2-0.8-0.7-2.1-0.7-2.8l-0.2-1.2c-0.2-1.8-0.2-3.8,0.1-5.3l0.5-2.6C284.2,118.8,284.6,117.6,285,117.1z M313.5,124.8
		l-0.7-6.5c0-0.7-0.3-2-0.6-2.7l-0.8-2.1c-0.2-0.7-0.9-1.8-1.5-2.3l-2.7-2.7c-0.5-0.5-1.6-1.2-2.2-1.3l-0.4-0.1
		c-1.6-0.5-1.9-0.5-3.7,0l-0.7,0.2c-1.7,0.5-3.2,1.6-4.4,3.1l-1.1,1.5c-0.4,0.6-1,1.6-1.2,2.3l-0.1,0.2c-0.2,0.7-0.5,1.9-0.7,2.6
		l-0.5,3.5c-0.1,0.7-0.2,1.9-0.1,2.6l0.3,5.5c0.1,0.7,0.2,2,0.5,2.8l1.1,3.6c0.2,0.7,0.9,1.9,1.4,2.5l0.4,0.5
		c0.5,0.7,1.5,1.5,2.1,1.9l0.3,0.2c0.6,0.4,1.6,0.8,2.3,1l0.7,0.2c3.4,0.7,6.2-0.4,8.3-3.3l0.5-0.7c0.5-0.7,1.1-1.8,1.5-2.5l0.4-1
		c0.3-0.7,0.7-1.9,0.8-2.6l0.5-3.9C313.5,126.7,313.6,125.5,313.5,124.8z M325.4,117.1l3.1-5.3c0.4-0.7,1.2-1.6,2-2.2l0.3-0.3
		c0.7-0.5,1.8-1.2,2.5-1.6l3-1.4c0.7-0.3,1.8-0.7,2.6-0.8l1.5-0.2c0.7-0.1,2-0.2,2.8-0.2h0.6c0.7,0,2,0.2,2.7,0.2l2.5,0.5
		c0.7,0.2,1.9,0.6,2.5,0.9l1,0.5c2.1,1,3.5,2.1,4.4,3.3l3,3.5c0.4,0.6,1,1.7,1.2,2.5l0.9,3.1c0.7,2.2,0.8,4.6,0.3,7l-0.4,2.5
		c-0.2,0.7-0.5,1.8-0.9,2.5l-2,3.9c-0.3,0.7-1.2,1.6-1.7,2.1l-2.3,2.1c-0.6,0.6-1.6,1.2-2.3,1.6l-2.5,1.1c-1.8,0.8-3.5,1.3-5.2,1.4
		h-1c-0.7,0.1-2,0-2.7-0.1l-2.9-0.4c-0.7-0.1-1.8-0.4-2.5-0.7l-4.2-2.1c-0.7-0.3-1.6-1.1-2.1-1.7l-2.7-3.5c-0.5-0.6-1.1-1.7-1.4-2.5
		l-0.7-1.6c-0.2-0.8-0.7-2.1-0.7-2.8l-0.2-1.2c-0.2-1.8-0.2-3.8,0.1-5.3l0.5-2.6C324.6,118.8,325,117.6,325.4,117.1z M353.9,124.8
		l-0.7-6.5c0-0.7-0.3-2-0.6-2.7l-0.8-2.1c-0.2-0.7-0.9-1.8-1.5-2.3l-2.7-2.7c-0.5-0.5-1.6-1.2-2.2-1.3l-0.4-0.1
		c-1.6-0.5-1.9-0.5-3.7,0l-0.7,0.2c-1.7,0.5-3.2,1.6-4.4,3.1l-1.1,1.5c-0.4,0.6-1,1.6-1.2,2.3l-0.1,0.2c-0.2,0.7-0.5,1.9-0.7,2.6
		l-0.5,3.5c-0.1,0.7-0.2,1.9-0.1,2.6l0.3,5.5c0.1,0.7,0.2,2,0.5,2.8l1.1,3.6c0.2,0.7,0.9,1.9,1.4,2.5l0.4,0.5
		c0.5,0.7,1.5,1.5,2.1,1.9l0.3,0.2c0.6,0.4,1.6,0.8,2.3,1l0.7,0.2c3.4,0.7,6.2-0.4,8.3-3.3l0.5-0.7c0.5-0.7,1.1-1.8,1.5-2.5l0.4-1
		c0.3-0.7,0.7-1.9,0.8-2.6l0.5-3.9C353.9,126.7,354,125.5,353.9,124.8z M399.5,87.7v48.8c0,2.5,0.5,3,3.1,3.5l0.4,0.1
		c1.1,0.2,2.1,0.7,2.1,1.1c0,0.5-1,1-2.2,1.2l-6.6,1c-1.1,0.2-2.5,0.3-3.1,0.3c-0.5,0-0.9-0.9-0.9-2.1v-2.4c0-1.2-0.1-2.1-0.2-2.1
		c-0.2,0-1,0.7-1.9,1.5l-3,2.5c-2.8,2.4-5.9,3-10,2.3l-2.1-0.3c-1-0.2-2.6-0.9-3.5-1.6l-0.8-0.7c-1.9-1.3-3.5-3.5-4.8-6.6l-0.3-0.8
		c-1.1-2.5-1.1-3.1-1.1-5.7v-4.4c0-1.1,0.3-3,0.7-4l0.9-2.3c0.4-1.1,1.2-2.6,1.9-3.6l0.3-0.4c0.7-0.9,2.1-2.3,3-3l1.4-1
		c1-0.7,2.8-1.6,4-2.1l0.6-0.2c4.2-1.4,6.2-1.6,9.5-0.9l2.5,0.5c1.1,0.2,2,0.5,2,0.6c0,0.2,0.2,0.2,0.4,0.2c0.2,0,0.3-0.9,0.3-2.1
		V94.6c0-3.4-1.2-4.4-5.3-5c-0.6-0.1-1-0.5-1-0.9c0-0.4,1-0.9,2.1-1.1l7.3-1.6c1.2-0.2,2.5-0.4,3-0.4
		C399.1,85.6,399.5,86.5,399.5,87.7z M392.3,133.7v-17.4c0-1.2-0.5-2.5-1.5-3.5l-3.7-3.8c-0.4-0.4-1.2-0.8-1.7-1l-1.5-0.4
		c-1.6-0.4-2.8-0.2-4.6,0.6l-0.1,0.1c-0.6,0.2-1.4,0.8-1.8,1.2l-0.8,0.8c-0.4,0.4-1,1.1-1.2,1.6l-1.5,2.6c-0.3,0.5-0.6,1.3-0.7,1.8
		l-0.5,2.6c-0.1,0.5-0.2,1.4-0.2,2v4.7c0,1.5,0.2,3,0.7,4.1l1.1,2.8c0.2,0.5,0.7,1.4,1.1,1.8l0.9,1.1c0.8,1.1,1.9,1.9,3,2.3l0.5,0.2
		c0.4,0.2,1.2,0.3,1.8,0.3h3.5c1.1,0,1.6-0.1,3-0.8l0.5-0.2c0.6-0.3,1.4-0.9,2-1.3l0.6-0.4C391.9,135,392.3,134.4,392.3,133.7z"/>
	<g>
		<path d="M404,90.1c0-0.6,0.1-1.2,0.4-1.8c0.2-0.5,0.6-1,1-1.4c0.4-0.4,0.9-0.7,1.4-0.9c0.5-0.2,1.1-0.3,1.7-0.3
			c0.6,0,1.2,0.1,1.7,0.3c0.5,0.2,1,0.5,1.4,0.9c0.4,0.4,0.7,0.9,1,1.4c0.2,0.5,0.4,1.1,0.4,1.8c0,0.6-0.1,1.2-0.4,1.8
			c-0.2,0.5-0.6,1-1,1.4c-0.4,0.4-0.9,0.7-1.4,0.9c-0.5,0.2-1.1,0.3-1.7,0.3c-0.6,0-1.2-0.1-1.7-0.3c-0.5-0.2-1-0.5-1.4-0.9
			c-0.4-0.4-0.7-0.9-1-1.4C404.2,91.4,404,90.8,404,90.1z M404.8,90.1c0,0.5,0.1,1,0.3,1.5c0.2,0.5,0.5,0.9,0.8,1.2
			c0.3,0.3,0.7,0.6,1.2,0.8c0.4,0.2,0.9,0.3,1.4,0.3c0.5,0,1-0.1,1.4-0.3c0.4-0.2,0.8-0.5,1.2-0.8c0.3-0.3,0.6-0.7,0.8-1.2
			c0.2-0.5,0.3-1,0.3-1.5c0-0.5-0.1-1-0.3-1.5c-0.2-0.5-0.5-0.9-0.8-1.2c-0.3-0.3-0.7-0.6-1.2-0.8c-0.4-0.2-0.9-0.3-1.4-0.3
			c-0.5,0-1,0.1-1.4,0.3c-0.4,0.2-0.8,0.5-1.2,0.8c-0.3,0.3-0.6,0.7-0.8,1.2C404.9,89.1,404.8,89.6,404.8,90.1z M406.8,87.5h2
			c1.2,0,1.8,0.5,1.8,1.5c0,0.5-0.1,0.8-0.4,1c-0.3,0.2-0.6,0.4-1,0.4l1.5,2.3h-0.9l-1.4-2.2h-0.9v2.2h-0.8V87.5z M407.6,89.8h0.8
			c0.2,0,0.3,0,0.5,0c0.2,0,0.3,0,0.4-0.1c0.1-0.1,0.2-0.1,0.3-0.3c0.1-0.1,0.1-0.3,0.1-0.5c0-0.2,0-0.3-0.1-0.4
			c-0.1-0.1-0.2-0.2-0.3-0.2c-0.1-0.1-0.2-0.1-0.4-0.1c-0.1,0-0.3,0-0.4,0h-1V89.8z"/>
	</g>
</g>
</svg>
