<?xml version="1.0" encoding="utf-8"?>
<!-- Generator: Adobe Illustrator 26.0.3, SVG Export Plug-In . SVG Version: 6.00 Build 0)  -->
<svg version="1.0" id="Layer_1" xmlns="http://www.w3.org/2000/svg" xmlns:xlink="http://www.w3.org/1999/xlink" x="0px" y="0px"
	 viewBox="0 0 430 230" style="enable-background:new 0 0 430 230;" xml:space="preserve">
<style type="text/css">
	.st0{fill:#233746;}
	.st1{fill:#AB4525;}
</style>
<g id="Layer_2_00000132776309952413077200000011834296949526676871_">
	<g id="Layer_1-2">
		<polygon class="st0" points="390.6,118.2 390.6,107.7 408.5,107.7 408.5,103.4 390.6,103.4 390.6,93.2 412.7,93.2 412.7,88.8 
			386,88.8 386,122.5 413,122.5 413,118.2 		"/>
		<path class="st0" d="M97.5,103.4c-6.1-1.5-8.7-2.6-8.7-6.1c0-2.7,2.6-4.7,6.2-4.7c3.2,0.1,6.4,1.2,8.9,3.1l0.4,0.3l2.6-3.7
			l-0.4-0.3c-3.3-2.5-7.4-3.8-11.5-3.7c-6.7,0-11.3,3.9-11.3,9.6c0,6,3.9,8.1,11.1,9.8c6.4,1.5,8.3,2.9,8.3,6c0,2.9-2.7,4.9-6.7,4.9
			c-3.9,0-7.7-1.4-10.6-4l-0.3-0.3l-2.9,3.5l0.4,0.3c3.7,3.1,8.5,4.9,13.4,4.9c7.3,0,11.9-3.8,11.9-9.9
			C108.2,108,105.3,105.4,97.5,103.4z"/>
		<polygon class="st0" points="139.3,103.3 121.6,103.3 121.6,88.8 116.6,88.8 116.6,122.5 121.6,122.5 121.6,107.9 139.3,107.9 
			139.3,122.5 144.3,122.5 144.3,88.8 139.3,88.8 		"/>
		<path class="st0" d="M170.5,88.2c-9.5-0.3-17.4,7.3-17.7,16.8c0,0.3,0,0.5,0,0.8c0,9.9,7.6,17.3,17.6,17.3
			c9.5,0.3,17.4-7.3,17.7-16.8c0-0.3,0-0.5,0-0.8C188.1,95.7,180.5,88.2,170.5,88.2z M170.5,118.6c-7,0-12.4-5.7-12.4-13.1
			s5.3-12.8,12.3-12.8s12.4,5.7,12.4,13C182.8,113.1,177.5,118.6,170.5,118.6z"/>
		<polygon class="st0" points="228.7,115.9 219.7,88.7 215.4,88.7 206.4,115.9 197.7,88.8 192.3,88.8 204,122.8 208.5,122.8 
			217.4,96.6 226.4,122.8 230.9,122.8 242.6,88.8 237.4,88.8 		"/>
		<path class="st0" d="M263.4,88.8h-13.2v33.7h5v-11.2h7.5c6.2,0,13.4-2.9,13.4-11.4C276,93.1,271.2,88.8,263.4,88.8z M262.9,106.9
			h-7.7V93.3h7.7c5.1,0,8.1,2.5,8.1,6.9C271,104.2,267.7,106.9,262.9,106.9z"/>
		<polygon class="st0" points="288.4,88.8 283.4,88.8 283.4,122.5 306.7,122.5 306.7,118.1 288.4,118.1 		"/>
		<path class="st0" d="M326.4,88.6l-14.8,33.9h5l3.6-8.4h17.2l3.5,8.4h5.2l-14.8-33.9H326.4z M321.9,109.8l6.8-15.9l6.9,15.9H321.9z
			"/>
		<path class="st0" d="M376.8,114.6c-3.2,2.9-6,4-9.7,4c-6.8,0-12-5.7-12-13.1s5.2-12.8,12-12.8c3.4,0,6.3,1.2,9.4,3.8l0.3,0.3
			l3.2-3.7l-0.3-0.3c-2.4-2.1-6-4.6-12.5-4.6c-9.9,0-17.4,7.5-17.4,17.5s7.4,17.3,17.1,17.3c4.9,0.2,9.6-1.8,13-5.3l0.3-0.3
			l-3.2-3.2L376.8,114.6z"/>
		<path class="st1" d="M82.6,141.9L82.6,141.9c-0.1-4.1,3.2-7.5,7.3-7.6c0.1,0,0.2,0,0.3,0c2.2-0.1,4.3,0.8,5.8,2.3l-1.7,2
			c-1.1-1.1-2.6-1.8-4.1-1.8c-2.7,0-4.9,2.2-4.9,4.9c0,0.1,0,0.2,0,0.3v0c-0.1,2.8,2,5.1,4.7,5.2c0.1,0,0.1,0,0.2,0
			c1.6,0,3.2-0.7,4.2-1.9l1.7,1.7c-1.5,1.7-3.7,2.7-6,2.6c-4.1,0.1-7.5-3.2-7.5-7.3C82.6,142.1,82.6,142,82.6,141.9z"/>
		<path class="st1" d="M111.3,134.4h2.4l6.5,14.9h-2.7l-1.5-3.6h-7l-1.6,3.6h-2.7L111.3,134.4z M115,143.4l-2.5-5.9l-2.5,5.9H115z"
			/>
		<path class="st1" d="M129.4,134.5h6.6c1.4-0.1,2.8,0.4,3.9,1.3c0.7,0.6,1,1.5,1,2.4l0,0c0.1,1.4-0.8,2.7-2.1,3.3
			c1.7,0.6,2.9,1.6,2.9,3.6l0,0c0,2.6-2.2,4-5.5,4h-6.9L129.4,134.5z M135.5,140.7c1.7,0,2.8-0.7,2.8-2v0c0-1.2-1-1.9-2.6-1.9h-3.8
			v3.9L135.5,140.7z M136.3,146.9c1.8,0,2.8-0.7,2.8-2l0,0c0-1.2-1-2-3-2h-4.1v4L136.3,146.9z"/>
		<path class="st1" d="M154.2,134.5h2.6v14.7h-2.6V134.5z"/>
		<path class="st1" d="M169.7,134.5h2.4l7.9,10.2v-10.2h2.6v14.7h-2.2l-8.2-10.5v10.5h-2.5L169.7,134.5z"/>
		<path class="st1" d="M193.8,134.5h10.9v2.4h-8.3v3.8h7.4v2.3h-7.4v3.9h8.5v2.3h-11V134.5z"/>
		<path class="st1" d="M221,136.9h-4.7v-2.4h12v2.4h-4.7v12.4h-2.6L221,136.9z"/>
		<path class="st1" d="M239.2,134.5h6.6c1.6-0.1,3.1,0.4,4.3,1.5c0.8,0.9,1.3,2,1.2,3.2l0,0c0.1,2.1-1.4,4-3.5,4.5l4,5.6h-3.1
			l-3.6-5.1h-3.3v5.1h-2.6L239.2,134.5z M245.6,141.8c1.9,0,3-1,3-2.5l0,0c0-1.6-1.1-2.5-3.1-2.5h-3.8v4.9L245.6,141.8z"/>
		<path class="st1" d="M267.2,143.4l-5.9-8.9h3.1l4.1,6.5l4.2-6.5h2.9l-5.9,8.8v5.9h-2.6L267.2,143.4z"/>
		
			<rect x="36.6" y="84.1" transform="matrix(0.6875 -0.7262 0.7262 0.6875 -69.2141 69.1862)" class="st1" width="18.4" height="61.8"/>
		
			<rect x="40.6" y="72.9" transform="matrix(0.6875 -0.7262 0.7262 0.6875 -48.5848 63.7426)" class="st1" width="18.4" height="30.9"/>
		
			<rect x="30.1" y="120.5" transform="matrix(0.6875 -0.7262 0.7262 0.6875 -88.9137 72.1076)" class="st1" width="18.4" height="37.6"/>
	</g>
</g>
</svg>
