<?xml version="1.0" encoding="utf-8"?>
<!-- Generator: Adobe Illustrator 26.0.3, SVG Export Plug-In . SVG Version: 6.00 Build 0)  -->
<svg version="1.0" id="Layer_1" xmlns="http://www.w3.org/2000/svg" xmlns:xlink="http://www.w3.org/1999/xlink" x="0px" y="0px"
	 viewBox="0 0 430 230" style="enable-background:new 0 0 430 230;" xml:space="preserve">
<g>
	<g>
		<path d="M35.8,156.7C23.6,156.7,17,151,17,139V99.1h5.7V139c0,9,4.1,13.7,13.1,13.7c4.2,0,9-0.8,11.9-2.3V99.1h5.7v53.4
			C49.6,154.7,42.4,156.7,35.8,156.7"/>
		<rect x="71.6" y="73.3" width="5.7" height="82.4"/>
		<path d="M110,156c-6.7,0-12-4.3-12-12.9v-40.5h-6.6v-3.5h6.6V85.6l5.7-2.1v15.6h10.5v3.5h-10.5v40.5c0,5.6,2.6,8.9,7.9,8.9
			c0.9,0,1.9-0.1,2.6-0.3v3.8C113,155.9,111.5,156,110,156"/>
		<path d="M147.6,103.1c-1.7-0.5-3.6-0.7-5.7-0.7c-2.8,0-5.8,0.5-8.3,1.8v51.5H128v-53.7c4.6-2.3,10.4-3.8,17.4-3.8
			c1.6,0,2.7,0.1,3.8,0.2L147.6,103.1z"/>
		<path d="M178.2,156.7c-12.3,0-19.8-5.9-19.8-16.8c0-13.4,12.9-19,31.6-20.9v-3.9c0-8.9-4.5-13-13.2-13c-4.7,0-9.8,1.5-13.6,3.7
			l-1.6-3.7c4.3-2.4,10-4.1,15.3-4.1c11.5,0,18.5,5.8,18.5,17.2v37.6C190.9,155.1,184.7,156.7,178.2,156.7 M189.9,122.5
			c-16.2,1.9-26,6.1-26,17.4c0,8.4,5,13.2,15,13.2c4.1,0,8.4-0.9,11-2.3V122.5z"/>
		<path d="M231.5,156.7c-13.4,0-20.9-12.6-20.9-29.4c0-16.8,7.4-29.3,20.9-29.3c4.8,0,9.1,1.4,11.9,3.6l-1.6,3.6
			c-2.4-1.8-6.1-3-9.9-3c-10.2,0-15.5,11.2-15.5,25.1c0,13.6,5.5,25.2,15.5,25.2c3.8,0,7.3-1.3,9.8-3l1.7,3.8
			C240.7,155.3,236.4,156.7,231.5,156.7"/>
		<path d="M276.6,103.1c-1.7-0.5-3.6-0.7-5.7-0.7c-2.8,0-5.8,0.5-8.3,1.8v51.5H257v-53.7c4.6-2.3,10.4-3.8,17.4-3.8
			c1.6,0,2.7,0.1,3.8,0.2L276.6,103.1z"/>
		<path d="M307.2,156.7c-12.3,0-19.8-5.9-19.8-16.8c0-13.4,12.9-19,31.6-20.9v-3.9c0-8.9-4.5-13-13.2-13c-4.7,0-9.8,1.5-13.6,3.7
			l-1.6-3.7c4.3-2.4,10-4.1,15.3-4.1c11.5,0,18.5,5.8,18.5,17.2v37.6C319.9,155.1,313.7,156.7,307.2,156.7 M318.9,122.5
			c-16.2,1.9-26,6.1-26,17.4c0,8.4,5,13.2,15,13.2c4.1,0,8.4-0.9,11-2.3V122.5z"/>
		<path d="M349.3,102.6v53.1h-5.7v-53.1H337v-3.5h6.6V90c0-9.7,5-16.7,15.5-16.7h0.6v3.8c-7.8,0-10.5,5-10.5,12.8v9.2h10.5v3.5
			H349.3z"/>
		<path d="M390,156c-6.7,0-12-4.3-12-12.9v-40.5h-6.6v-3.5h6.6V85.6l5.7-2.1v15.6h10.5v3.5h-10.5v40.5c0,5.6,2.6,8.9,7.9,8.9
			c0.9,0,1.9-0.1,2.6-0.3v3.8C392.9,155.9,391.4,156,390,156"/>
	</g>
	<g>
		<path d="M413,103.4c0,4-3.1,7.2-7.1,7.2c-3.9,0-7.1-3.2-7.1-7.2c0-4,3.1-7.2,7.1-7.2C409.9,96.2,413,99.4,413,103.4 M400.6,103.4
			c0,3.2,2.3,5.7,5.4,5.7c3,0,5.3-2.5,5.3-5.7c0-3.2-2.3-5.8-5.3-5.8C402.9,97.7,400.6,100.3,400.6,103.4 M404.8,107.1h-1.6V100
			c0.6-0.1,1.5-0.2,2.6-0.2c1.3,0,1.9,0.2,2.4,0.6c0.4,0.3,0.7,0.8,0.7,1.5c0,0.9-0.6,1.4-1.4,1.7v0.1c0.7,0.2,1,0.8,1.2,1.8
			c0.2,1.1,0.4,1.5,0.5,1.8h-1.7c-0.2-0.3-0.3-0.9-0.5-1.8c-0.1-0.7-0.5-1.1-1.4-1.1h-0.8V107.1z M404.9,103.1h0.8
			c0.9,0,1.6-0.3,1.6-1.1c0-0.7-0.5-1.1-1.5-1.1c-0.4,0-0.7,0-0.9,0.1V103.1z"/>
	</g>
</g>
</svg>
